<?xml version="1.0" encoding="utf-8"?>
<svg width="27.599976px" height="27.600098px" viewBox="0 0 27.599976 27.600098" version="1.1" xmlns:xlink="http://www.w3.org/1999/xlink" xmlns="http://www.w3.org/2000/svg">
  <path d="M13.8 3.09944e-06C6.19025 3.09944e-06 4.88758e-05 6.1902 4.88758e-05 13.8C4.88758e-05 21.4098 6.19025 27.6 13.8 27.6C21.4098 27.6 27.6 21.4098 27.6 13.8C27.6 11.064 26.7962 8.5136 25.418 6.3668L24.5965 7.33711C25.7335 9.22951 26.4001 11.436 26.4001 13.8C26.4001 20.7474 20.7474 26.4 13.8 26.4C6.85265 26.4 1.20005 20.7474 1.20005 13.8C1.20005 6.8526 6.85265 1.2 13.8 1.2C17.0659 1.2 20.0364 2.45986 22.2774 4.50586L23.0625 3.57891C20.6116 1.35591 17.361 3.09944e-06 13.8 3.09944e-06L13.8 3.09944e-06ZM24.7418 3.45235L13.1485 17.1328L8.2688 12.5813L7.45083 13.459L13.2504 18.8684L25.6583 4.22813L24.7418 3.45235L24.7418 3.45235Z" id="Фигура" fill="#59ADFF" fill-rule="evenodd" stroke="none" />
</svg>