<?xml version="1.0" encoding="utf-8"?>
<svg width="18.75px" height="20.3125px" viewBox="0 0 18.75 20.3125" version="1.1" xmlns:xlink="http://www.w3.org/1999/xlink" xmlns="http://www.w3.org/2000/svg">
  <path d="M17.4479 20.3125L12.7604 20.3125C12.0411 20.3125 11.4583 19.7297 11.4583 19.0104L11.4583 14.3229C11.4583 13.7474 10.9922 13.2812 10.4167 13.2812L8.33333 13.2812C7.75781 13.2812 7.29167 13.7474 7.29167 14.3229L7.29167 19.0104C7.29167 19.7297 6.70885 20.3125 5.98958 20.3125L1.30208 20.3125C0.582813 20.3125 0 19.7297 0 19.0104L0 9.06927C0 7.87187 0.548958 6.74063 1.48906 6L8.89115 0.167187C9.175 -0.0557292 9.575 -0.0557292 9.85833 0.167187L17.2615 6C18.2016 6.74063 18.75 7.87136 18.75 9.06823L18.75 19.0104C18.75 19.7297 18.1672 20.3125 17.4479 20.3125L17.4479 20.3125Z" id="Фигура" fill="#FFFFFF" stroke="none" />
</svg>