<?xml version="1.0" encoding="utf-8"?>
<svg width="15px" height="15px" viewBox="0 0 15 15" version="1.1" xmlns:xlink="http://www.w3.org/1999/xlink" xmlns="http://www.w3.org/2000/svg">
  <path d="M7.5 0C3.36426 0 0 3.36426 0 7.5C0 11.6357 3.36426 15 7.5 15C11.6357 15 15 11.6357 15 7.5C15 3.36426 11.6357 0 7.5 0L7.5 0ZM6.85547 1.28906C6.86279 1.28906 6.86768 1.28906 6.875 1.28906C6.89697 1.61621 7.16797 1.875 7.5 1.875C7.83203 1.875 8.10303 1.61621 8.125 1.28906C11.0864 1.57959 13.4204 3.91357 13.7109 6.875C13.3838 6.89697 13.125 7.16797 13.125 7.5C13.125 7.83203 13.3838 8.10303 13.7109 8.125C13.4204 11.0864 11.0864 13.4204 8.125 13.7109C8.10303 13.3838 7.83203 13.125 7.5 13.125C7.16797 13.125 6.89697 13.3838 6.875 13.7109C3.91357 13.4204 1.57959 11.0864 1.28906 8.125C1.61621 8.10303 1.875 7.83203 1.875 7.5C1.875 7.16797 1.61621 6.89697 1.28906 6.875C1.57959 3.91846 3.90381 1.58691 6.85547 1.28906L6.85547 1.28906ZM6.875 3.125L6.875 7.75391L7.05078 7.94922L9.55078 10.4492L10.4492 9.55078L8.125 7.22656L8.125 3.125L6.875 3.125Z" id="Фигура" fill="#000000" fill-rule="evenodd" stroke="none" />
</svg>