<?xml version="1.0" encoding="utf-8"?>
<svg width="21.3125px" height="21.8125px" viewBox="0 0 21.3125 21.8125" version="1.1" xmlns:xlink="http://www.w3.org/1999/xlink" xmlns="http://www.w3.org/2000/svg">
  <path d="M8.5 0C3.80078 0 0 3.80079 0 8.50001C0 13.1992 3.80078 17 8.5 17C10.1777 17 11.7305 16.5078 13.0469 15.6719L19.1875 21.8125L21.3125 19.6875L15.25 13.6406C16.3398 12.2109 17 10.4395 17 8.50001C17 3.80079 13.1992 0 8.5 0L8.5 0ZM8.5 2C12.0996 2 15 4.9004 15 8.50002C15 12.0996 12.0996 15 8.5 15C4.90039 15 2 12.0996 2 8.50002C2 4.9004 4.90039 2 8.5 2L8.5 2Z" id="Фигура" fill="#FFFFFF" fill-rule="evenodd" stroke="none" />
</svg>